<?xml version="1.0" encoding="utf-8"?>
<!-- Generator: Adobe Illustrator 26.5.0, SVG Export Plug-In . SVG Version: 6.00 Build 0)  -->
<svg version="1.1" id="Layer_1" xmlns="http://www.w3.org/2000/svg" xmlns:xlink="http://www.w3.org/1999/xlink" x="0px" y="0px"
	 viewBox="0 0 1080 1080" style="enable-background:new 0 0 1080 1080;" xml:space="preserve">
<style type="text/css">
	.st0{fill:#DDDA64;}
	.st1{fill:none;stroke:#000000;stroke-width:48.2992;stroke-linecap:round;stroke-linejoin:round;}
	.st2{fill:#A950DD;stroke:#000000;stroke-width:45.1575;stroke-linecap:round;stroke-linejoin:round;}
	.st3{fill:#FFFFFF;}
</style>
<polygon class="st0" points="291.3,899.2 172.2,790.7 172.2,581.5 881.3,581.5 881.3,899.2 291.3,899.2 "/>
<polygon class="st1" points="272.8,898.9 148.6,790.7 148.6,581.7 893.6,581.7 893.6,898.9 272.8,898.9 "/>
<polygon class="st2" points="252.3,148 146.6,256.4 146.6,715 895.6,715 895.6,148 253,148 "/>
<path class="st3" d="M749.5,241.4c-23,0-40.3,0.2-51.9,0.6v105.6c0,101.6-0.2,159.7-0.7,174.5v39.1h-99.2l-0.7-173.9V241.9
	c-11.6-0.3-28.9-0.6-51.9-0.6c-23,0-40.3-0.1-51.9-0.6v320.3h-50.2l-49.6-0.6V386.1L393,240.3l-51.5-0.6h-51.5v409.8h104.4
	c44.7-39,77.9-68.4,99.8-88.4h101.8c11.2,9.6,28,24.3,50.6,44c22.5,19.7,39.6,34.4,51.2,44.4h103.7V240.8
	C789.8,241.3,772.5,241.4,749.5,241.4L749.5,241.4z"/>
<g>
	<path d="M448.2,770.2v18.4H321.3v9.2h126.9v46.1h-148v-18.4h126.9v-9.2H300.2v-46.1H448.2z"/>
	<path d="M596.3,788.6h21.1v55.3h-148v-73.7h126.9V788.6z M596.3,788.6H490.5v36.8h105.7V788.6z"/>
	<path d="M786.6,797.8v46.1h-21.1v-27.6H659.7v27.6h-21.1v-73.7h21.1v27.6h84.6v-27.6h21.1v27.6H786.6z"/>
</g>
</svg>
