<?xml version="1.0" encoding="utf-8"?>
<!-- Generator: Adobe Illustrator 27.0.1, SVG Export Plug-In . SVG Version: 6.00 Build 0)  -->
<svg version="1.1"
	 id="svg2182" xmlns:rdf="http://www.w3.org/1999/02/22-rdf-syntax-ns#" xmlns:svg="http://www.w3.org/2000/svg" xmlns:cc="http://creativecommons.org/ns#" xmlns:dc="http://purl.org/dc/elements/1.1/" xmlns:sodipodi="http://sodipodi.sourceforge.net/DTD/sodipodi-0.dtd" xmlns:inkscape="http://www.inkscape.org/namespaces/inkscape" inkscape:version="0.92.4 (5da689c313, 2019-01-14)" sodipodi:docname="LoLAPI.svg"
	 xmlns="http://www.w3.org/2000/svg" xmlns:xlink="http://www.w3.org/1999/xlink" x="0px" y="0px" viewBox="0 0 300 300"
	 style="enable-background:new 0 0 300 300;" xml:space="preserve">
<style type="text/css">
	.st0{fill:#DDDA64;}
	.st1{fill:#A950DD;}
	.st2{fill:#FFFFFF;}
</style>
<sodipodi:namedview  bordercolor="#666666" borderopacity="1.0" id="base" inkscape:current-layer="layer1" inkscape:cx="107.87937" inkscape:cy="-35.713706" inkscape:document-units="mm" inkscape:pageopacity="0.0" inkscape:pageshadow="2" inkscape:window-height="1051" inkscape:window-maximized="1" inkscape:window-width="1842" inkscape:window-x="-9" inkscape:window-y="-9" inkscape:zoom="0.70000001" pagecolor="#ffffff" showgrid="false" units="px">
	</sodipodi:namedview>
<polygon class="st0" points="64.7,288.6 20.5,248.4 20.5,170.7 283.7,170.7 283.7,288.6 "/>
<path d="M288.2,297.5H57.9c-2.2,0-4.3-0.8-5.9-2.2L5.9,255.1c-2-1.7-3.1-4.2-3.1-6.8v-77.5c0-4.9,4-9,9-9h276.4c4.9,0,9,4,9,9v117.7
	C297.2,293.5,293.2,297.5,288.2,297.5z M61.2,279.5h218v-99.8H20.7v64.5L61.2,279.5z"/>
<g>
	<polygon class="st1" points="50.3,9.9 11,50.1 11,220.3 289,220.3 289,9.9 50.5,9.9 	"/>
	<path d="M289,228.7H11c-4.6,0-8.4-3.8-8.4-8.4V50.1c0-2.2,0.9-4.3,2.4-5.8L44.3,4c1.6-1.6,3.7-2.5,6-2.5H289c4.6,0,8.4,3.8,8.4,8.4
		v210.4C297.3,224.9,293.6,228.7,289,228.7z M19.4,211.9h261.2V18.3H53.8L19.4,53.5V211.9z"/>
</g>
<path class="st2" d="M234.7,44.5c-8.5,0-15,0.1-19.3,0.2V84c0,37.7-0.1,59.3-0.3,64.7v14.5h-36.8l-0.3-64.5V44.7
	c-4.3-0.1-10.7-0.2-19.3-0.2s-15,0-19.3-0.2v118.8H121l-18.4-0.2V98.2l-0.1-54.1l-19.1-0.2H64.3V196H103
	c16.6-14.5,28.9-25.4,37-32.8h37.8c4.2,3.6,10.4,9,18.8,16.3c8.3,7.3,14.7,12.8,19,16.5H254V44.3C249.7,44.5,243.3,44.5,234.7,44.5
	L234.7,44.5z"/>
<g>
	<path d="M123,240.8v6.8H75.9v3.4H123v17.1H68v-6.8h47.1v-3.4H68v-17.1H123z"/>
	<path d="M177.9,247.6h7.8v20.5h-54.9v-27.3h47.1V247.6z M177.9,247.6h-39.3v13.7h39.2L177.9,247.6L177.9,247.6z"/>
	<path d="M248.5,251v17.1h-7.8v-10.2h-39.3v10.2h-7.8v-27.3h7.8V251h31.4v-10.2h7.8V251L248.5,251L248.5,251z"/>
</g>
</svg>
